Coordinates
version=1
nRows=24
nColumns=34
inDegrees=no

Units are S.I. units (second, meters, Newtons, ...)
If the header above contains a line with 'inDegrees', this indicates whether rotational values are in degrees (yes) or radians (no).

endheader
time	pelvis_tilt	pelvis_list	pelvis_rotation	pelvis_tx	pelvis_ty	pelvis_tz	hip_flexion_r	hip_adduction_r	hip_rotation_r	knee_angle_r	ankle_angle_r	subtalar_angle_r	mtp_angle_r	hip_flexion_l	hip_adduction_l	hip_rotation_l	knee_angle_l	ankle_angle_l	subtalar_angle_l	mtp_angle_l	lumbar_extension	lumbar_bending	lumbar_rotation	arm_flex_r	arm_add_r	arm_rot_r	elbow_flex_r	pro_sup_r	arm_flex_l	arm_add_l	arm_rot_l	elbow_flex_l	pro_sup_l
0.45	-0.0160472	-0.137216	-0.0991581	0.434352	1.04085	-0.196602	-0.144323	0.169262	-0.0560417	0.104935	0.314731	0.340635	-0.0219601	0.511137	-0.184743	-0.141857	0.296726	-0.090464	0.00382006	-0.0219619	-0.111222	0.166231	0.136363	0.161427	-0.282803	0.0484958	0.796802	1.73722	-0.276379	-0.104177	0.321048	0.49307	1.54088
0.46	-0.0130734	-0.129729	-0.101015	0.44704	1.03952	-0.197064	-0.153812	0.15622	-0.0726718	0.11936	0.333397	0.363092	-0.0219588	0.489949	-0.171965	-0.150961	0.223015	-0.0937521	0.0318193	-0.0219606	-0.114244	0.157439	0.138656	0.166178	-0.283423	0.0451384	0.808649	1.73583	-0.281364	-0.10304	0.321028	0.489417	1.54254
0.47	-0.00939956	-0.121743	-0.103015	0.45988	1.03826	-0.197607	-0.163189	0.142046	-0.0895802	0.135485	0.351542	0.385187	-0.0219575	0.468561	-0.158232	-0.153272	0.157	-0.0889832	0.0562569	-0.0219593	-0.117795	0.148065	0.141182	0.169825	-0.284128	0.0416492	0.820542	1.73378	-0.285143	-0.102098	0.321489	0.485448	1.54407
0.48	-0.00498033	-0.113301	-0.105005	0.472872	1.03707	-0.198229	-0.172586	0.126901	-0.106124	0.153141	0.368673	0.405975	-0.0219562	0.447609	-0.143884	-0.14842	0.10064	-0.0765915	0.0760767	-0.021958	-0.121884	0.138131	0.143739	0.172364	-0.284836	0.0380746	0.832362	1.73133	-0.287705	-0.10145	0.322522	0.481209	1.54546
0.49	0.000213886	-0.104436	-0.106824	0.486024	1.03599	-0.198928	-0.18214	0.110951	-0.121699	0.172128	0.38426	0.424552	-0.0219549	0.427588	-0.129249	-0.136996	0.0553159	-0.0579531	0.0907863	-0.0219567	-0.126489	0.127644	0.146087	0.17378	-0.285436	0.0344383	0.843963	1.72879	-0.289081	-0.101176	0.32414	0.476772	1.54671
0.5	0.0062119	-0.0951553	-0.108327	0.499356	1.03503	-0.199698	-0.191974	0.0943151	-0.135848	0.192269	0.397759	0.440213	-0.0219536	0.40872	-0.114541	-0.120413	0.0215466	-0.0352821	0.100395	-0.0219554	-0.131558	0.11658	0.147974	0.17405	-0.285802	0.0307478	0.85519	1.72642	-0.289344	-0.101332	0.32628	0.472226	1.54782
0.51	0.0130486	-0.0854313	-0.109416	0.512893	1.03421	-0.200522	-0.202173	0.0770388	-0.148311	0.213466	0.40862	0.452534	-0.0219524	0.390877	-0.0998078	-0.100586	-0.00118667	-0.0114124	0.105213	-0.0219541	-0.137029	0.104877	0.149159	0.17314	-0.285808	0.0270065	0.865884	1.72445	-0.288605	-0.101944	0.32882	0.467675	1.54882
0.52	0.0207506	-0.0752104	-0.110051	0.526662	1.03358	-0.201392	-0.212747	0.0590978	-0.159016	0.235736	0.416275	0.461355	-0.0219511	0.373587	-0.0849381	-0.0795419	-0.014395	0.0105303	0.105617	-0.0219528	-0.142824	0.0924619	0.149448	0.171021	-0.28535	0.0232314	0.875895	1.72299	-0.287007	-0.103	0.33159	0.463233	1.54979
0.53	0.0292993	-0.0644532	-0.110253	0.540681	1.03316	-0.202292	-0.223574	0.0404502	-0.167981	0.259248	0.420114	0.466649	-0.0219498	0.356201	-0.0697435	-0.0590914	-0.0202194	0.0275527	0.101912	-0.0219515	-0.148843	0.0792906	0.148705	0.167678	-0.284358	0.0194736	0.885078	1.7221	-0.284712	-0.10446	0.334383	0.459022	1.55081
0.54	0.0386169	-0.0531579	-0.110084	0.554951	1.03297	-0.203216	-0.234362	0.0210825	-0.175238	0.284332	0.419481	0.468395	-0.0219485	0.33816	-0.0540521	-0.0406215	-0.0209857	0.0372336	0.0942929	-0.0219502	-0.154963	0.0653792	0.146855	0.163131	-0.282805	0.0158283	0.893287	1.72177	-0.281875	-0.106261	0.336974	0.455176	1.55198
0.55	0.0485528	-0.0413724	-0.109621	0.569451	1.033	-0.20416	-0.244616	0.00103051	-0.180784	0.311491	0.413693	0.466498	-0.0219472	0.319187	-0.03777	-0.0250061	-0.0188176	0.0380624	0.0829241	-0.0219489	-0.161043	0.0508075	0.143874	0.157449	-0.280705	0.0124311	0.90038	1.72197	-0.278621	-0.108333	0.339138	0.451835	1.55339
0.56	0.0588537	-0.0291854	-0.108938	0.584131	1.03324	-0.205129	-0.253642	-0.0196306	-0.184583	0.341376	0.40209	0.460765	-0.0219459	0.299376	-0.0208976	-0.0126287	-0.0153693	0.029621	0.0680593	-0.0219475	-0.166929	0.035695	0.139775	0.150757	-0.2781	0.00944472	0.906214	1.72265	-0.275028	-0.110618	0.340669	0.449147	1.55513
0.57	0.0690908	-0.0166287	-0.108072	0.598921	1.03365	-0.206123	-0.260582	-0.0408123	-0.186582	0.374748	0.384103	0.450955	-0.0219446	0.279153	-0.00352623	-0.00348094	-0.011693	0.0125954	0.0501657	-0.0219462	-0.172472	0.0201832	0.134604	0.143231	-0.275043	0.00703701	0.910648	1.72374	-0.271133	-0.113084	0.341391	0.447259	1.55725
0.58	0.0788786	-0.00373346	-0.107048	0.613739	1.0342	-0.207142	-0.26441	-0.0624605	-0.186744	0.412377	0.359324	0.436846	-0.0219433	0.259219	0.0142325	0.0027043	-0.00825343	-0.011363	0.0299998	-0.0219449	-0.17744	0.00436296	0.12841	0.13508	-0.271578	0.00535478	0.913559	1.7252	-0.266923	-0.115735	0.341169	0.446321	1.55977
0.59	0.0877913	0.00952006	-0.105868	0.628491	1.03485	-0.208187	-0.264042	-0.0845826	-0.18507	0.454959	0.327571	0.418318	-0.0219421	0.240411	0.0322934	0.00631437	-0.0050105	-0.0398797	0.00860465	-0.0219436	-0.181563	-0.0117556	0.121252	0.126534	-0.267733	0.00450004	0.914848	1.72694	-0.262349	-0.118622	0.339925	0.446476	1.56267
0.6	0.0953933	0.0232195	-0.104521	0.643087	1.03555	-0.209251	-0.258446	-0.107247	-0.181596	0.502999	0.288927	0.395423	-0.0219408	0.22357	0.0506264	0.00774726	-0.00157622	-0.0701681	-0.0127638	-0.0219423	-0.184564	-0.0282462	0.113203	0.11781	-0.263509	0.00451147	0.91445	1.72889	-0.257333	-0.121836	0.33765	0.447859	1.56588
0.61	0.101289	0.0374991	-0.102997	0.657447	1.03627	-0.210326	-0.246766	-0.130549	-0.176376	0.556708	0.243762	0.368413	-0.0219395	0.209417	0.0692555	0.00734945	0.00258904	-0.0993773	-0.0327687	-0.021941	-0.186195	-0.0452425	0.104365	0.109099	-0.258889	0.00535511	0.91235	1.73093	-0.251777	-0.1255	0.33442	0.450575	1.56928
0.62	0.105173	0.0524896	-0.101308	0.671506	1.03697	-0.211403	-0.228437	-0.154546	-0.169452	0.615913	0.192727	0.337732	-0.0219382	0.198419	0.0882264	0.00540892	0.00796685	-0.124939	-0.0501618	-0.0219397	-0.186275	-0.0628828	0.0948881	0.100543	-0.253848	0.00692588	0.908578	1.73292	-0.245574	-0.129746	0.330403	0.454689	1.57271
0.63	0.10689	0.068252	-0.0995047	0.685223	1.03762	-0.212463	-0.203284	-0.179181	-0.160829	0.68001	0.136736	0.303959	-0.0219369	0.190679	0.107555	0.00219957	0.0147855	-0.144881	-0.0639751	-0.0219384	-0.184733	-0.0812433	0.084985	0.0922296	-0.248371	0.00906254	0.903208	1.73471	-0.238617	-0.134693	0.325859	0.460201	1.57596
0.64	0.106485	0.0846959	-0.0976929	0.698585	1.03821	-0.213485	-0.171575	-0.204223	-0.15047	0.747972	0.0769503	0.267723	-0.0219356	0.185874	0.127182	-0.00194378	0.0228717	-0.158066	-0.0737021	-0.0219371	-0.181637	-0.100284	0.0749299	0.084194	-0.242467	0.0115743	0.896335	1.73613	-0.230802	-0.14042	0.321112	0.467034	1.5788
0.65	0.104281	0.10156	-0.0960063	0.711596	1.03877	-0.214439	-0.134003	-0.229221	-0.138328	0.818405	0.0147908	0.229621	-0.0219343	0.183278	0.146908	-0.00656333	0.0315951	-0.164283	-0.0793969	-0.0219358	-0.177181	-0.11979	0.0650483	0.0764363	-0.236181	0.014273	0.888061	1.73707	-0.222042	-0.146941	0.316509	0.475024	1.58107
0.66	0.100679	0.118462	-0.0946167	0.724288	1.0393	-0.215301	-0.0916672	-0.253475	-0.1244	0.889678	-0.0480289	0.190177	-0.021933	0.181827	0.166372	-0.011084	0.0399882	-0.16416	-0.0816186	-0.0219345	-0.171732	-0.139323	0.0556699	0.0689345	-0.2296	0.0170039	0.878468	1.73751	-0.212263	-0.154201	0.312372	0.483932	1.58265
0.67	0.0961792	0.134852	-0.0936829	0.736705	1.03985	-0.216044	-0.0459528	-0.276097	-0.108792	0.960049	-0.10948	0.149839	-0.0219318	0.180311	0.185062	-0.01489	0.0469587	-0.158919	-0.0812408	-0.0219332	-0.165756	-0.158269	0.0470768	0.0616632	-0.222845	0.0196685	0.867606	1.73751	-0.201413	-0.162077	0.308955	0.493458	1.58353
0.68	0.0913202	0.150075	-0.0933073	0.748898	1.04046	-0.216655	0.0016141	-0.296094	-0.0917682	1.02781	-0.16725	0.109007	-0.0219305	0.177578	0.202361	-0.0174328	0.0515409	-0.150055	-0.0792104	-0.0219319	-0.159755	-0.17589	0.0394557	0.0546077	-0.216065	0.0222368	0.855492	1.73721	-0.189467	-0.170388	0.306407	0.503278	1.58379
